<svg xmlns="http://www.w3.org/2000/svg" viewBox="0 0 1200 750" preserveAspectRatio="xMidYMid slice">
  <rect width="1200" height="750" fill="#0d1a10"/>
  <g fill="none" stroke="#1FAE4A" stroke-width="3" opacity="0.55">
    <rect x="30" y="30" width="1140" height="690"/>
    <line x1="600" y1="30" x2="600" y2="720"/>
    <circle cx="600" cy="375" r="96"/>
    <rect x="30" y="205" width="150" height="340"/>
    <rect x="1020" y="205" width="150" height="340"/>
    <rect x="30" y="290" width="58" height="170"/>
    <rect x="1112" y="290" width="58" height="170"/>
    <path d="M180 285 A 96 96 0 0 1 180 465"/>
    <path d="M1020 285 A 96 96 0 0 0 1020 465"/>
    <path d="M30 66 A 36 36 0 0 0 66 30"/>
    <path d="M1170 66 A 36 36 0 0 1 1134 30"/>
    <path d="M30 684 A 36 36 0 0 1 66 720"/>
    <path d="M1170 684 A 36 36 0 0 0 1134 720"/>
  </g>
  <circle cx="600" cy="375" r="7" fill="#1FAE4A" opacity="0.55"/>
  <g opacity="0.06" fill="#F2F2F0">
    <rect x="30" y="30" width="142" height="690"/>
    <rect x="315" y="30" width="142" height="690"/>
    <rect x="600" y="30" width="142" height="690"/>
    <rect x="885" y="30" width="142" height="690"/>
  </g>
</svg>
